<svg id="Layer_2" data-name="Layer 2" xmlns="http://www.w3.org/2000/svg" width="24" height="24" viewBox="0 0 24 24">
  <g id="sync">
    <rect id="Rectangle_28" data-name="Rectangle 28" width="24" height="24" fill="#000b90" opacity="0"/>
    <path id="Path_41" data-name="Path 41" d="M21.66,10.37a.62.62,0,0,0,.07-.19l.75-4a1.016,1.016,0,1,0-2-.36l-.37,2a9.22,9.22,0,0,0-16.58.84,1,1,0,0,0,1.86.75A7.08,7.08,0,0,1,12.07,5a7.17,7.17,0,0,1,6.24,3.58l-1.65-.27a1.013,1.013,0,1,0-.32,2l4.25.71h.16a.93.93,0,0,0,.34-.06.33.33,0,0,0,.1-.06.78.78,0,0,0,.2-.11l.08-.1a1.07,1.07,0,0,0,.14-.16.58.58,0,0,0,.05-.16Zm-1.78,3.7a1,1,0,0,0-1.31.56A7.08,7.08,0,0,1,11.93,19a7.17,7.17,0,0,1-6.24-3.58l1.65.27H7.5a1,1,0,1,0,.16-2L3.41,13a.91.91,0,0,0-.33,0H3a1.15,1.15,0,0,0-.32.14,1,1,0,0,0-.18.18l-.09.1a.84.84,0,0,0-.07.19.44.44,0,0,0-.07.17l-.75,4A1,1,0,0,0,2.32,19H2.5a1,1,0,0,0,1-.82l.37-2a9.22,9.22,0,0,0,16.58-.83,1,1,0,0,0-.57-1.28Z" fill="#000b90"/>
  </g>
</svg>
