<svg id="user-svgrepo-com" xmlns="http://www.w3.org/2000/svg" width="489" height="489" viewBox="0 0 489 489">
  <g id="Group_40" data-name="Group 40">
    <path id="Path_43" data-name="Path 43" d="M417.4,71.6A244.518,244.518,0,0,0,71.6,417.4,244.518,244.518,0,0,0,417.4,71.6ZM244.5,462C124.6,462,27,364.4,27,244.5S124.6,27,244.5,27,462,124.6,462,244.5,364.4,462,244.5,462Z" fill="#000b90"/>
    <path id="Path_44" data-name="Path 44" d="M244.5,203.2a63.65,63.65,0,1,0-63.6-63.7A63.7,63.7,0,0,0,244.5,203.2Zm0-100.3a36.6,36.6,0,1,1-36.6,36.6A36.617,36.617,0,0,1,244.5,102.9Z" fill="#000b90"/>
    <path id="Path_45" data-name="Path 45" d="M340.9,280.5c-22.3-32.8-54.7-49.5-96.4-49.5s-74.1,16.6-96.4,49.5c-16.6,24.4-27.2,57.7-31.4,98.7a13.473,13.473,0,0,0,26.8,2.8c8.5-82.3,42.5-124,101-124s92.5,41.7,101,124a13.525,13.525,0,0,0,13.4,12.1,6.6,6.6,0,0,0,1.4-.1,13.47,13.47,0,0,0,12-14.8C368.1,338.1,357.5,304.9,340.9,280.5Z" fill="#000b90"/>
  </g>
</svg>
